<svg xmlns="http://www.w3.org/2000/svg" version="1.1" xmlns:xlink="http://www.w3.org/1999/xlink" xmlns:svgjs="http://svgjs.dev/svgjs" width="100%" height="100%" viewBox="0 0 1000 600"><rect width="1000" height="600" x="0" y="0" fill="#f7f7f7"/><g><rect width="333.3333333333333" height="333.3333333333333" rx="13.333333333333334" ry="13.333333333333334" y="236.26018090678753" fill="#209cee" transform="matrix(0.5840085456875475,0,0,0.5840085456875475,0,64.68726966317189)" x="214.0379180908203"/><path d="M377.2120760032604 442.1494252154919L377.2120760032604 380.04208728577464Q377.2120760032604 376.4667125136102 377.5909236612381 373.0807615704347Q377.94609334059214 369.71848860588267 379.29573812213766 367.09023297866247Q380.6217049250596 364.4619773514423 383.15524863778535 362.9229087409079Q385.68879235051116 361.3838401303735 390.02186243863093 361.3838401303735L390.02186243863093 361.3838401303735Q394.18918667638553 361.3838401303735 396.6753744318641 362.9229087409079Q399.1852401659663 364.4619773514423 400.46385101164094 367.09023297866247Q401.76613983593927 369.71848860588267 402.144987493917 373.0807615704347Q402.5238351518947 376.4667125136102 402.5238351518947 380.04208728577464L402.5238351518947 380.04208728577464L402.5238351518947 442.1494252154919Q402.5238351518947 449.86844624678724 401.93188568630455 456.45092430414957Q401.3399362207144 463.0334023615119 398.8537484652358 467.768998086233Q396.3438827311336 472.52827178957773 391.27679530568207 475.2275613526688Q386.18602990160684 477.92685091575976 377.2120760032604 477.92685091575976L377.2120760032604 477.92685091575976Q373.54198931660153 477.92685091575976 370.2033943306732 477.192833578428Q366.8884773233684 476.4351382624726 364.37861158926626 474.848713694691Q361.89242383378763 473.2622891269095 360.4007111805005 470.84713530730176Q358.88532054858973 468.431981487694 358.88532054858973 465.1170644803892L358.88532054858973 465.1170644803892Q358.88532054858973 462.0389272593205 359.5246259714271 460.026299076314Q360.1402534156408 458.03734887193116 361.51357617580993 456.82977196212727Q362.88689893597905 455.6221950523234 365.01791701210357 455.12495750122764Q367.1252571096045 454.62771995013196 370.2033943306732 454.62771995013196L370.2033943306732 454.62771995013196Q372.7842940006461 454.62771995013196 374.2049727180625 453.58588889069335Q375.62565143547886 452.5440578312547 376.28863483693976 450.7918874131079Q376.9516182384007 449.03971699496105 377.07000813151876 446.79030902571856Q377.2120760032604 444.540901056476 377.2120760032604 442.1494252154919L377.2120760032604 442.1494252154919ZM402.5238351518947 340.5708969202243L402.5238351518947 340.5708969202243Q402.5238351518947 346.82188327685617 399.2325961232135 349.9473764551721Q395.94135709453235 353.072869633488 390.02186243863093 353.072869633488L390.02186243863093 353.072869633488Q384.03133384685873 353.072869633488 380.6217049250596 349.9473764551721Q377.2120760032604 346.82188327685617 377.2120760032604 340.5708969202243L377.2120760032604 340.5708969202243Q377.2120760032604 334.0831307773564 380.6217049250596 331.00499355628773Q384.03133384685873 327.926856335219 390.02186243863093 327.926856335219L390.02186243863093 327.926856335219Q396.4385946456281 327.926856335219 399.4693759094496 331.00499355628773Q402.5238351518947 334.0831307773564 402.5238351518947 340.5708969202243Z " fill="#f7f7f7" transform="matrix(0.5840085456875475,0,0,0.5840085456875475,0,64.68726966317189)"/><path d="M671.47805745705 445.2985963724314L671.47805745705 445.2985963724314Q662.3383577083382 445.2985963724314 655.7085236937287 443.21493425355413Q649.1023676577428 441.13127213467686 644.5561957620105 437.81635512737205Q640.0100238662783 434.4777601414437 637.26337834594 430.2867579250655Q634.5167328256018 426.0720777300637 633.0723761295619 421.73900764194394Q631.6043414548983 417.4059375538241 631.1544598610499 413.4280371450584Q630.7045782672013 409.4264587576691 630.7045782672013 406.5140673869656L630.7045782672013 406.5140673869656Q630.7045782672013 405.25913451991454 630.9176800748137 403.4832861231441Q631.1071039038027 401.68375974775006 632.3620367708537 400.0263012440977Q633.6169696379047 398.3451647618217 636.3162592009958 397.18494380926506Q639.0155487640868 396.02472285670837 644.0116022536677 396.02472285670837L644.0116022536677 396.02472285670837Q645.6927387359435 396.02472285670837 648.1789264914221 396.23782466432084Q650.6651142469007 396.42724849330966 653.0092341306377 397.30333370238304Q655.329676035751 398.1794189114565 657.010812518027 399.86055539373245Q658.6682710216794 401.51801389738483 658.6682710216794 404.3356933535939L658.6682710216794 404.3356933535939Q658.6682710216794 408.83450929207896 659.2128645300223 412.4098840642434Q659.7574580383653 416.0089368150314 661.154458777158 418.49512457051Q662.5751374945744 421.00499030461214 665.0850032286764 422.33095710753406Q667.571190984155 423.656923910456 671.47805745705 423.656923910456L671.47805745705 423.656923910456Q675.5743477589338 423.656923910456 677.776399770929 421.9994654068036Q679.9784517829244 420.31832892452763 680.9729268851158 418.25834478427396L680.9729268851158 418.25834478427396Q682.1331478376724 415.91422490053696 682.2988936880377 412.8360876794683L682.2988936880377 412.8360876794683L682.2988936880377 351.7469028305661L660.4914753756971 351.7469028305661Q657.1765583683923 351.7469028305661 653.8379633824638 351.391733151212Q650.4993683965355 351.06024145048156 647.8000788334446 349.9000204979249Q645.1007892703535 348.7397995453682 643.3959748094538 346.4193576402549Q641.6911603485543 344.07523775651794 641.6911603485543 340.0736593691286L641.6911603485543 340.0736593691286Q641.6911603485543 336.00104704586846 643.3959748094538 333.5858932262607Q645.1007892703535 331.1707394066529 647.8000788334446 329.96316249684907Q650.4993683965355 328.7555855870452 653.8379633824638 328.42409388631467Q657.1765583683923 328.0926021855842 660.4914753756971 328.0926021855842L660.4914753756971 328.0926021855842L694.4693747005708 328.0926021855842Q699.204970425292 328.0926021855842 701.9989719028774 329.7500606892366Q704.7929733804629 331.43119717151257 706.1899741192556 334.1304867346036Q707.610652836672 336.82977629769465 708.0368564518969 340.23940521949385Q708.4393820884982 343.67271211991664 708.4393820884982 347.24808689208106L708.4393820884982 347.24808689208106L708.4393820884982 410.51564577435494Q708.4393820884982 419.15810797197094 705.9531943330196 425.14863656374314Q703.4433285989173 431.13916515551534 699.6548520191404 435.0223536497866Q695.8663754393637 438.8818641654343 691.3438815222551 440.9655262843116Q686.7977096265226 443.04918840318885 682.6777413460154 444.0199855267567Q678.557773065508 444.9671046717009 675.4796358444394 445.1328505220662Q672.4014986233706 445.2985963724314 671.47805745705 445.2985963724314ZM796.5214625683105 380.37357898650515L796.5214625683105 425.81161996520405Q796.5214625683105 429.3159608014977 796.2610048034509 432.7019117446733Q796.0242250172149 436.0641847092253 794.7692921501638 438.7161183150691Q793.5143592831126 441.3917298995365 791.0281715276341 443.00183244594166Q788.518305793532 444.63561297097044 784.0431678336705 444.63561297097044L784.0431678336705 444.63561297097044Q779.4496399806911 444.63561297097044 776.868740310718 443.0965443604361Q774.287840640745 441.55747574990176 773.0329077736939 439.35542373790645Q771.8016528852664 437.15337172591114 771.4938391631596 434.73821790630336Q771.2097034196762 432.3230640866956 771.2097034196762 430.6419276044196L771.2097034196762 430.6419276044196Q770.4520081037209 433.0570814240274 769.0786853435519 435.56694715812955Q767.7053625833827 438.0531349136081 765.5506665286347 440.0657630966146Q763.3959704738865 442.05471330099743 760.3415112314414 443.35700212529576Q757.31072996762 444.63561297097044 753.2381176443597 444.63561297097044L753.2381176443597 444.63561297097044Q748.6445897913803 444.63561297097044 744.0747399170244 443.1439003176833Q739.5048900426685 441.62850968577254 735.8348033560097 438.14784682810256Q732.1647166693509 434.6435059918089 729.8916307214848 429.0318250580144Q727.594866794995 423.4201441242199 727.594866794995 415.1565295845816L727.594866794995 415.1565295845816L727.594866794995 391.02866936712763Q727.594866794995 382.6940208916185 729.8916307214848 377.082339957824Q732.1647166693509 371.4706590240295 735.8348033560097 368.0136741449831Q739.5048900426685 364.55668926593665 744.0747399170244 363.0649766126495Q748.6445897913803 361.54958598073875 753.2381176443597 361.54958598073875L753.2381176443597 361.54958598073875Q757.31072996762 361.54958598073875 760.3415112314414 362.80451884778984Q763.3959704738865 364.059451714841 765.5506665286347 366.0484019192238Q767.7053625833827 368.0610301022303 769.0786853435519 370.54721785770886Q770.4520081037209 373.057083591811 771.2097034196762 375.54327134728965L771.2097034196762 375.54327134728965Q771.2097034196762 371.37594710953505 772.369924372233 368.6293015891968Q773.5538233034132 365.8826560688586 775.3770276574309 364.2725535224534Q777.2002320114485 362.6387729974246 779.4969959379383 362.0231455532109Q781.7937598644279 361.3838401303735 784.0431678336705 361.3838401303735L784.0431678336705 361.3838401303735Q788.1868140928015 361.3838401303735 790.6966798269037 363.0176206554023Q793.1828675823823 364.6277232018075 794.4851564066806 367.2559788290277Q795.7637672523553 369.8842344562479 796.1426149103328 373.34121933529434Q796.5214625683105 376.7982042143407 796.5214625683105 380.37357898650515L796.5214625683105 380.37357898650515ZM753.2381176443597 392.85187372114524L753.2381176443597 413.0018335298335Q753.2381176443597 415.25124149907606 753.403863494725 417.4059375538241Q753.5696093450903 419.5843115871958 754.3036266824221 421.33648200534265Q755.0613219983774 423.0649744448658 756.529356673041 424.1068055043045Q757.9737133690809 425.14863656374314 760.5546130390538 425.14863656374314L760.5546130390538 425.14863656374314Q763.7984961104877 425.14863656374314 765.8348022721178 423.7042798677032Q767.871108433748 422.2362451930396 769.0550073649282 419.2054639292181Q770.215228317485 416.17468266539663 770.6651099113334 411.55747683379354Q771.1386694838055 406.9165930235669 771.2097034196762 400.5235387951934L771.2097034196762 400.5235387951934Q771.2097034196762 397.9426391252204 770.7598218258278 394.5566881820448Q770.2862622533556 391.19441521749286 769.1260413007991 388.18731193229496Q767.9658203482423 385.20388662572066 765.882158229365 383.1202245068434Q763.7984961104877 381.0365623879661 760.5546130390538 381.0365623879661L760.5546130390538 381.0365623879661Q757.9737133690809 381.0365623879661 756.529356673041 382.0783934474047Q755.0613219983774 383.1202245068434 754.3036266824221 384.77768301049576Q753.5696093450903 386.45881949277174 753.403863494725 388.56615959027266Q753.2381176443597 390.6971776663971 753.2381176443597 392.85187372114524L753.2381176443597 392.85187372114524ZM817.1686599280946 425.9773658155693L817.1686599280946 346.58510349062016Q817.1686599280946 343.0807626543265 817.5475075860724 339.7421676683981Q817.9026772654264 336.42725066109335 819.2523220469719 333.84635099112035Q820.5782888498937 331.26545132114734 823.0644766053723 329.6790267533658Q825.5743423394746 328.0926021855842 829.8127005130999 328.0926021855842L829.8127005130999 328.0926021855842Q834.1457706012196 328.0926021855842 836.6319583566982 329.6790267533658Q839.1418240908005 331.26545132114734 840.4204349364751 333.84635099112035Q841.7227237607734 336.42725066109335 842.1015714187512 339.7421676683981Q842.4567410981052 343.0807626543265 842.4567410981052 346.58510349062016L842.4567410981052 346.58510349062016L842.4567410981052 425.9773658155693Q842.4567410981052 429.48170665186296 842.1015714187512 432.8676575950385Q841.7227237607734 436.2299305595905 840.4204349364751 438.8581861868107Q839.1418240908005 441.46276383540726 836.6319583566982 443.04918840318885Q834.1457706012196 444.63561297097044 829.8127005130999 444.63561297097044L829.8127005130999 444.63561297097044Q825.5743423394746 444.63561297097044 823.0644766053723 443.04918840318885Q820.5782888498937 441.46276383540726 819.2523220469719 438.8581861868107Q817.9026772654264 436.2299305595905 817.5475075860724 432.8676575950385Q817.1686599280946 429.48170665186296 817.1686599280946 425.9773658155693L817.1686599280946 425.9773658155693ZM930.2073298771871 380.37357898650515L930.2073298771871 425.81161996520405Q930.2073298771871 429.3159608014977 929.9468721123275 432.7019117446733Q929.7100923260915 436.0641847092253 928.4551594590404 438.7161183150691Q927.2002265919892 441.3917298995365 924.7140388365107 443.00183244594166Q922.2041731024086 444.63561297097044 917.7290351425471 444.63561297097044L917.7290351425471 444.63561297097044Q913.1355072895677 444.63561297097044 910.5546076195948 443.0965443604361Q907.9737079496216 441.55747574990176 906.7424530611942 439.35542373790645Q905.487520194143 437.15337172591114 905.1797064720362 434.73821790630336Q904.895570728553 432.3230640866956 904.895570728553 430.6419276044196L904.895570728553 430.6419276044196Q904.1615533912212 433.0570814240274 902.788230631052 435.56694715812955Q901.414907870883 438.0531349136081 899.2365338375113 440.0657630966146Q897.081837782763 442.05471330099743 894.027378540318 443.35700212529576Q890.9965972764966 444.63561297097044 886.9239849532363 444.63561297097044L886.9239849532363 444.63561297097044Q882.3304571002569 444.63561297097044 877.760607225901 443.1439003176833Q873.1907573515451 441.62850968577254 869.5206706648863 438.14784682810256Q865.8505839782275 434.6435059918089 863.5774980303614 429.0318250580144Q861.2807341038716 423.4201441242199 861.2807341038716 415.1565295845816L861.2807341038716 415.1565295845816L861.2807341038716 391.02866936712763Q861.2807341038716 382.6940208916185 863.5774980303614 377.082339957824Q865.8505839782275 371.4706590240295 869.5206706648863 368.0136741449831Q873.1907573515451 364.55668926593665 877.760607225901 363.0649766126495Q882.3304571002569 361.54958598073875 886.9239849532363 361.54958598073875L886.9239849532363 361.54958598073875Q890.9965972764966 361.54958598073875 894.027378540318 362.80451884778984Q897.081837782763 364.059451714841 899.2365338375113 366.0484019192238Q901.414907870883 368.0610301022303 902.788230631052 370.54721785770886Q904.1615533912212 373.057083591811 904.895570728553 375.54327134728965L904.895570728553 375.54327134728965Q904.895570728553 371.37594710953505 906.0557916811096 368.6293015891968Q907.2396906122898 365.8826560688586 909.0628949663075 364.2725535224534Q910.8860993203251 362.6387729974246 913.1828632468149 362.0231455532109Q915.4796271733047 361.3838401303735 917.7290351425471 361.3838401303735L917.7290351425471 361.3838401303735Q921.872681401678 361.3838401303735 924.3825471357803 363.0176206554023Q926.8687348912589 364.6277232018075 928.1710237155572 367.2559788290277Q929.4496345612318 369.8842344562479 929.8284822192096 373.34121933529434Q930.2073298771871 376.7982042143407 930.2073298771871 380.37357898650515L930.2073298771871 380.37357898650515ZM886.9239849532363 392.85187372114524L886.9239849532363 413.0018335298335Q886.9239849532363 415.25124149907606 887.0897308036016 417.4059375538241Q887.2554766539669 419.5843115871958 888.0131719699222 421.33648200534265Q888.747189307254 423.0649744448658 890.2152239819176 424.1068055043045Q891.6595806779575 425.14863656374314 894.2404803479304 425.14863656374314L894.2404803479304 425.14863656374314Q897.4843634193645 425.14863656374314 899.5206695809944 423.7042798677032Q901.5806537212483 422.2362451930396 902.7408746738048 419.2054639292181Q903.9010956263616 416.17468266539663 904.35097722021 411.55747683379354Q904.8245367926821 406.9165930235669 904.895570728553 400.5235387951934L904.895570728553 400.5235387951934Q904.895570728553 397.9426391252204 904.4456891347044 394.5566881820448Q903.9958075408559 391.19441521749286 902.8119086096757 388.18731193229496Q901.6516876571189 385.20388662572066 899.5680255382416 383.1202245068434Q897.4843634193645 381.0365623879661 894.2404803479304 381.0365623879661L894.2404803479304 381.0365623879661Q891.6595806779575 381.0365623879661 890.2152239819176 382.0783934474047Q888.747189307254 383.1202245068434 888.0131719699222 384.77768301049576Q887.2554766539669 386.45881949277174 887.0897308036016 388.56615959027266Q886.9239849532363 390.6971776663971 886.9239849532363 392.85187372114524L886.9239849532363 392.85187372114524ZM950.8545272369712 425.9773658155693L950.8545272369712 346.58510349062016Q950.8545272369712 343.0807626543265 951.233374894949 339.7421676683981Q951.588544574303 336.42725066109335 952.9381893558485 333.84635099112035Q954.2641561587703 331.26545132114734 956.7503439142489 329.6790267533658Q959.2602096483512 328.0926021855842 963.4985678219765 328.0926021855842L963.4985678219765 328.0926021855842Q967.8316379100962 328.0926021855842 970.317825665575 329.6790267533658Q972.8276913996771 331.26545132114734 974.1063022453519 333.84635099112035Q975.40859106965 336.42725066109335 975.7874387276278 339.7421676683981Q976.1662863856055 343.0807626543265 976.1662863856055 346.58510349062016L976.1662863856055 346.58510349062016L976.1662863856055 425.9773658155693Q976.1662863856055 429.48170665186296 975.7874387276278 432.8676575950385Q975.40859106965 436.2299305595905 974.1063022453519 438.8581861868107Q972.8276913996771 441.46276383540726 970.317825665575 443.04918840318885Q967.8316379100962 444.63561297097044 963.4985678219765 444.63561297097044L963.4985678219765 444.63561297097044Q959.2602096483512 444.63561297097044 956.7503439142489 443.04918840318885Q954.2641561587703 441.46276383540726 952.9381893558485 438.8581861868107Q951.588544574303 436.2299305595905 951.233374894949 432.8676575950385Q950.8545272369712 429.48170665186296 950.8545272369712 425.9773658155693L950.8545272369712 425.9773658155693ZM1099.52855501459 349.73427464755963L1087.1923281516915 394.367264353056L1113.6643082528826 394.367264353056L1101.3517593686079 349.73427464755963L1099.52855501459 349.73427464755963ZM1122.164702578757 343.7437460557874L1139.4733049526126 402.51248899957625Q1139.6390508029776 408.171525890618 1139.8995085678375 414.09102054651936Q1140.1362883540737 419.9868372237971 1140.1362883540737 425.4801282644736L1140.1362883540737 425.4801282644736L1140.1362883540737 427.98999399857576Q1140.1362883540737 431.13916515551534 1139.9468645250845 434.098912483466Q1139.733762717472 437.0586598114167 1138.6445757007864 439.42645767377724Q1137.5553886841008 441.79425553613777 1135.2349467789873 443.21493425355413Q1132.89082689525 444.63561297097044 1128.6524687216247 444.63561297097044L1128.6524687216247 444.63561297097044Q1124.319398633505 444.63561297097044 1121.998956728392 443.21493425355413Q1119.6785148232784 441.79425553613777 1118.5419718493454 439.4738136310244Q1117.429106854036 437.15337172591114 1117.2160050464236 434.14626844071324Q1117.002903238811 431.13916515551534 1117.002903238811 427.98999399857576L1117.002903238811 427.98999399857576L1117.002903238811 416.3404285157619L1083.7116652940217 416.3404285157619L1083.7116652940217 427.98999399857576Q1083.7116652940217 431.13916515551534 1083.4985634864092 434.14626844071324Q1083.2854616787968 437.15337172591114 1082.1725966834874 439.4738136310244Q1081.0360537095544 441.79425553613777 1078.7156118044409 443.21493425355413Q1076.371491920704 444.63561297097044 1072.0620998112076 444.63561297097044L1072.0620998112076 444.63561297097044Q1067.729029723088 444.63561297097044 1065.3849098393507 443.21493425355413Q1063.0644679342377 441.79425553613777 1061.9752809175516 439.42645767377724Q1060.886093900866 437.0586598114167 1060.7203480505004 434.098912483466Q1060.5546022001354 431.13916515551534 1060.5546022001354 427.98999399857576L1060.5546022001354 427.98999399857576L1060.5546022001354 425.4801282644736Q1060.5546022001354 422.8992285945006 1060.6019581573828 419.9868372237971Q1060.6493141146298 417.07444585309366 1060.7203480505004 414.09102054651936Q1060.8150599649953 411.08391726132146 1060.886093900866 408.1241699333708Q1060.9808058153603 405.1881005840437 1061.0755177298547 402.51248899957625L1061.0755177298547 402.51248899957625Q1065.2191639889857 388.02156608192973 1069.8126918419653 373.17547348492906Q1074.3825417163212 358.3057029093048 1078.5498659540758 343.7437460557874L1078.5498659540758 343.7437460557874Q1079.378595205902 340.66560883471874 1080.5388161584583 337.80057342126247Q1081.699037111015 334.9118600291826 1083.6169533795273 332.8045199316817Q1085.5348696480391 330.6735018555572 1088.541972933237 329.39489100988254Q1091.5253982398112 328.0926021855842 1096.1899600286615 328.0926021855842L1096.1899600286615 328.0926021855842L1104.5246085041708 328.0926021855842Q1109.0944583785267 328.0926021855842 1112.1252396423483 329.39489100988254Q1115.1796988847932 330.6735018555572 1117.0976151533055 332.8045199316817Q1118.991853443194 334.9118600291826 1120.128396417127 337.80057342126247Q1121.2412614124364 340.66560883471874 1122.164702578757 343.7437460557874L1122.164702578757 343.7437460557874ZM1157.9658062576486 425.9773658155693L1157.9658062576486 346.58510349062016Q1157.9658062576486 343.0807626543265 1158.3446539156262 339.7421676683981Q1158.6998235949804 336.42725066109335 1160.049468376526 333.84635099112035Q1161.3754351794478 331.26545132114734 1163.8616229349263 329.6790267533658Q1166.3714886690282 328.0926021855842 1170.6098468426535 328.0926021855842L1170.6098468426535 328.0926021855842Q1174.9429169307737 328.0926021855842 1177.4291046862522 329.6790267533658Q1179.9389704203545 331.26545132114734 1181.217581266029 333.84635099112035Q1182.5198700903275 336.42725066109335 1182.898717748305 339.7421676683981Q1183.2538874276588 343.0807626543265 1183.2538874276588 346.58510349062016L1183.2538874276588 346.58510349062016L1183.2538874276588 425.9773658155693Q1183.2538874276588 429.48170665186296 1182.898717748305 432.8676575950385Q1182.5198700903275 436.2299305595905 1181.217581266029 438.8581861868107Q1179.9389704203545 441.46276383540726 1177.4291046862522 443.04918840318885Q1174.9429169307737 444.63561297097044 1170.6098468426535 444.63561297097044L1170.6098468426535 444.63561297097044Q1166.3714886690282 444.63561297097044 1163.8616229349263 443.04918840318885Q1161.3754351794478 441.46276383540726 1160.049468376526 438.8581861868107Q1158.6998235949804 436.2299305595905 1158.3446539156262 432.8676575950385Q1157.9658062576486 429.48170665186296 1157.9658062576486 425.9773658155693L1157.9658062576486 425.9773658155693ZM1209.72586752885 442.1494252154919L1209.72586752885 380.04208728577464Q1209.72586752885 376.4667125136102 1210.104715186828 373.0807615704347Q1210.4835628448054 369.71848860588267 1211.8095296477272 367.09023297866247Q1213.1591744292728 364.4619773514423 1215.6927181419987 362.9229087409079Q1218.2262618547243 361.3838401303735 1222.559331942844 361.3838401303735L1222.559331942844 361.3838401303735Q1226.7266561805986 361.3838401303735 1229.2128439360772 362.9229087409079Q1231.7227096701795 364.4619773514423 1233.0013205158543 367.09023297866247Q1234.3036093401524 369.71848860588267 1234.6587790195067 373.0807615704347Q1235.0376266774842 376.4667125136102 1235.0376266774842 380.04208728577464L1235.0376266774842 380.04208728577464L1235.0376266774842 442.1494252154919Q1235.0376266774842 449.86844624678724 1234.469355190518 456.45092430414957Q1233.8774057249275 463.0334023615119 1231.3675399908252 467.768998086233Q1228.8813522353466 472.52827178957773 1223.8142648098951 475.2275613526688Q1218.72349940582 477.92685091575976 1209.72586752885 477.92685091575976L1209.72586752885 477.92685091575976Q1206.0794588208146 477.92685091575976 1202.7408638348866 477.192833578428Q1199.402268848958 476.4351382624726 1196.9160810934795 474.848713694691Q1194.429893338001 473.2622891269095 1192.91450270609 470.84713530730176Q1191.422790052803 468.431981487694 1191.422790052803 465.1170644803892L1191.422790052803 465.1170644803892Q1191.422790052803 462.0389272593205 1192.0384174970168 460.026299076314Q1192.6777229198542 458.03734887193116 1194.051045680023 456.82977196212727Q1195.4243684401922 455.6221950523234 1197.5317085376932 455.12495750122764Q1199.6627266138175 454.62771995013196 1202.7408638348866 454.62771995013196L1202.7408638348866 454.62771995013196Q1205.3217635048595 454.62771995013196 1206.7424422222757 453.58588889069335Q1208.163120939692 452.5440578312547 1208.826104341153 450.7918874131079Q1209.4890877426142 449.03971699496105 1209.6074776357323 446.79030902571856Q1209.72586752885 444.540901056476 1209.72586752885 442.1494252154919L1209.72586752885 442.1494252154919ZM1235.0376266774842 340.5708969202243L1235.0376266774842 340.5708969202243Q1235.0376266774842 346.82188327685617 1231.7463876488032 349.9473764551721Q1228.4551486201221 353.072869633488 1222.559331942844 353.072869633488L1222.559331942844 353.072869633488Q1216.568803351072 353.072869633488 1213.1591744292728 349.9473764551721Q1209.72586752885 346.82188327685617 1209.72586752885 340.5708969202243L1209.72586752885 340.5708969202243Q1209.72586752885 334.0831307773564 1213.1591744292728 331.00499355628773Q1216.568803351072 327.926856335219 1222.559331942844 327.926856335219L1222.559331942844 327.926856335219Q1228.9760641498415 327.926856335219 1232.0068454136626 331.00499355628773Q1235.0376266774842 334.0831307773564 1235.0376266774842 340.5708969202243ZM1326.7661158653318 391.19441521749286L1326.7661158653318 425.81161996520405Q1326.7661158653318 429.3159608014977 1326.410946185978 432.7019117446733Q1326.032098528 436.0641847092253 1324.729809703702 438.7161183150691Q1323.451198858027 441.3917298995365 1320.9413331239248 443.00183244594166Q1318.4551453684462 444.63561297097044 1314.1220752803265 444.63561297097044L1314.1220752803265 444.63561297097044Q1309.7890051922068 444.63561297097044 1307.2554614794813 443.00183244594166Q1304.7219177667553 441.3917298995365 1303.348595006586 438.7161183150691Q1301.9752722464173 436.0641847092253 1301.5490686311923 432.7019117446733Q1301.1465429945906 429.3159608014977 1301.1465429945906 425.81161996520405L1301.1465429945906 425.81161996520405L1301.1465429945906 393.01761957151047Q1301.1465429945906 390.86292351676235 1300.9807971442256 388.7319054406379Q1300.8150512938605 386.62456534313696 1300.057355977905 384.943428860861Q1299.2996606619495 383.2859703572086 1297.8553039659096 382.24413929776995Q1296.387269291246 381.20230823833134 1293.806369621273 381.20230823833134L1293.806369621273 381.20230823833134Q1290.4914526139682 381.20230823833134 1288.407790495091 383.40436025032665Q1286.3241283762136 385.60641226232195 1285.1165514664099 389.48960075659323Q1283.9089745566062 393.349111272241 1283.4354149841338 398.65297848392856Q1282.9855333902856 403.9331677169926 1282.9855333902856 409.9947302446356L1282.9855333902856 409.9947302446356L1282.9855333902856 425.81161996520405Q1282.9855333902856 429.3159608014977 1282.6066857323076 432.7019117446733Q1282.2515160529538 436.0641847092253 1280.9018712714083 438.7161183150691Q1279.5759044684864 441.3917298995365 1276.995004798513 443.00183244594166Q1274.41410512854 444.63561297097044 1270.0100011045497 444.63561297097044L1270.0100011045497 444.63561297097044Q1265.67693101643 444.63561297097044 1263.1670652823277 443.00183244594166Q1260.6808775268491 441.3917298995365 1259.3785887025506 438.7161183150691Q1258.0999778568762 436.0641847092253 1257.7211301988982 432.7019117446733Q1257.3422825409207 429.3159608014977 1257.3422825409207 425.81161996520405L1257.3422825409207 425.81161996520405L1257.3422825409207 346.9165951913506Q1257.3422825409207 343.412254355057 1257.7211301988982 340.049981390505Q1258.0999778568762 336.66403044732937 1259.3785887025506 334.01209684148563Q1260.6808775268491 331.3364852570182 1263.1670652823277 329.726382710613Q1265.67693101643 328.0926021855842 1270.0100011045497 328.0926021855842L1270.0100011045497 328.0926021855842Q1274.41410512854 328.0926021855842 1276.995004798513 329.726382710613Q1279.5759044684864 331.3364852570182 1280.9018712714083 334.01209684148563Q1282.2515160529538 336.66403044732937 1282.6066857323076 340.049981390505Q1282.9855333902856 343.412254355057 1282.9855333902856 346.9165951913506L1282.9855333902856 346.9165951913506L1282.9855333902856 375.37752549692436Q1283.7432287062406 372.96237167731664 1285.1639074236573 370.47618392183807Q1286.5609081624498 367.96631818773585 1288.8103161316922 365.977367983353Q1291.059724100935 363.96473980034654 1294.0905053647566 362.68612895467186Q1297.1449646072015 361.3838401303735 1301.1465429945906 361.3838401303735L1301.1465429945906 361.3838401303735Q1305.7163928689465 361.3838401303735 1310.3335987005498 362.9229087409079Q1314.9508045321527 364.4619773514423 1318.5735352615643 367.96631818773585Q1322.1962659909764 371.4706590240295 1324.4930299174657 377.17705187231843Q1326.7661158653318 382.8597667419837 1326.7661158653318 391.19441521749286L1326.7661158653318 391.19441521749286ZM1414.3509587940484 391.02866936712763L1414.3509587940484 425.6458741148389Q1414.3509587940484 429.2449268656269 1413.924755178824 432.65455578742603Q1413.5222295422227 436.0641847092253 1412.1489067820535 438.7161183150691Q1410.7755840218842 441.3917298995365 1408.218362330535 443.00183244594166Q1405.684818617809 444.63561297097044 1401.3517485296893 444.63561297097044L1401.3517485296893 444.63561297097044Q1397.113390356064 444.63561297097044 1394.6272026005854 443.00183244594166Q1392.1173368664831 441.3917298995365 1390.7913700635613 438.7161183150691Q1389.4654032606395 436.0641847092253 1389.0865556026615 432.65455578742603Q1388.707707944684 429.2449268656269 1388.707707944684 425.6458741148389L1388.707707944684 425.6458741148389L1388.707707944684 393.1833654218757Q1388.707707944684 390.86292351676235 1388.4946061370715 388.61351554751985Q1388.281504329459 386.36410757827736 1387.5474869921272 384.65929311737773Q1386.7897916761717 382.95447865647816 1385.3454349801318 381.9126475970395Q1383.8774003054682 380.87081653760083 1381.39121254999 380.87081653760083L1381.39121254999 380.87081653760083Q1377.9579056495668 380.87081653760083 1375.8979215093132 383.1202245068434Q1373.8142593904363 385.3696324760859 1372.6066824806321 389.2764989489808Q1371.3991055708284 393.1833654218757 1370.9729019556034 398.48723263356334Q1370.5703763190022 403.7674218666274 1370.5703763190022 409.8289843942704L1370.5703763190022 409.8289843942704L1370.5703763190022 425.6458741148389Q1370.5703763190022 429.2449268656269 1370.1441727037773 432.65455578742603Q1369.7179690885523 436.0641847092253 1368.344646328383 438.7161183150691Q1366.9713235682143 441.3917298995365 1364.4377798554883 443.00183244594166Q1361.9042361427623 444.63561297097044 1357.5711660546426 444.63561297097044L1357.5711660546426 444.63561297097044Q1353.3328078810173 444.63561297097044 1350.822942146915 443.00183244594166Q1348.3367543914364 441.3917298995365 1347.0107875885146 438.7161183150691Q1345.661142806969 436.0641847092253 1345.3059731276153 432.65455578742603Q1344.9271254696373 429.2449268656269 1344.9271254696373 425.6458741148389L1344.9271254696373 425.6458741148389L1344.9271254696373 380.2078331361399Q1344.9271254696373 376.6324583639755 1345.1639052558735 373.2465074207999Q1345.4243630207334 369.8842344562479 1346.679295887784 367.2559788290277Q1347.9105507762115 364.6277232018075 1350.4677724675612 363.0176206554023Q1353.0013161802867 361.3838401303735 1357.5711660546426 361.3838401303735L1357.5711660546426 361.3838401303735Q1362.1646939076222 361.3838401303735 1364.7455935775952 362.9229087409079Q1367.3028152689444 364.4619773514423 1368.605104093243 366.640351384814Q1369.8837149389174 368.79504743956204 1370.2388846182716 371.2102012591698Q1370.5703763190022 373.6253550787776 1370.5703763190022 375.37752549692436L1370.5703763190022 375.37752549692436Q1371.2333597204633 372.96237167731664 1372.6303604592558 370.47618392183807Q1374.051039176672 367.96631818773585 1376.2530911886674 365.977367983353Q1378.4788211792866 363.96473980034654 1381.5569584003551 362.68612895467186Q1384.6350956214237 361.3838401303735 1388.707707944684 361.3838401303735L1388.707707944684 361.3838401303735Q1393.2775578190399 361.3838401303735 1397.8710856720195 362.8992307622843Q1402.440935546375 364.3909434155714 1406.111022233034 367.89528425186506Q1409.7574309410693 371.37594710953505 1412.054194867559 377.03498400057674Q1414.3509587940484 382.6940208916185 1414.3509587940484 391.02866936712763L1414.3509587940484 391.02866936712763ZM1443.143380800353 477.92685091575976L1443.143380800353 477.92685091575976Q1433.648511372287 477.92685091575976 1429.6706109635215 475.2275613526688Q1425.6690325761324 472.52827178957773 1425.6690325761324 467.27176053513733L1425.6690325761324 467.27176053513733Q1425.6690325761324 464.69086086516427 1426.3793719348405 462.9386904470175Q1427.0897112935481 461.2101980074943 1428.320966181976 460.12101099080843Q1429.5758990490272 459.0318239741226 1431.2096795740558 458.5819423802741Q1432.8197821204608 458.13206078642554 1434.6666644531024 458.13206078642554L1434.6666644531024 458.13206078642554Q1435.8979193415298 458.13206078642554 1436.9871063582154 458.2030947222964Q1438.0762933749015 458.2978066367908 1438.8103107122333 458.2978066367908L1438.8103107122333 458.2978066367908Q1440.3967352800146 458.2978066367908 1441.8647699546782 456.4035683469024Q1443.309126650718 454.5330080356375 1444.6824494108873 451.7153285794285Q1446.0557721710566 448.8739711445958 1447.4764508884728 445.63008807316186Q1448.897129605889 442.38620500172794 1450.3178083233056 439.6395594813897L1450.3178083233056 439.6395594813897L1448.96816354176 436.3009644954613Q1446.5530097221522 430.2394019678183 1443.901076116308 423.53853401733795Q1441.2254645318408 416.8376660668576 1438.620886883244 409.971052266012Q1435.9926312560242 403.1044384651664 1433.4590875432982 396.26150264294444Q1430.901865851949 389.44224479934604 1428.8418817116954 383.02551259234895L1428.8418817116954 383.02551259234895Q1427.9184405453748 380.37357898650515 1427.2791351225374 377.79267931653214Q1426.6635076783236 375.21177964655914 1426.6635076783236 372.701913912457L1426.6635076783236 372.701913912457Q1426.6635076783236 370.3104380714728 1427.6579827805149 368.2267759525955Q1428.6761358613298 366.14311383371825 1430.4046283008533 364.6277232018075Q1432.156798719 363.13601054852035 1434.4535626454895 362.25992533944697Q1436.7503265719793 361.3838401303735 1439.3312262419522 361.3838401303735L1439.3312262419522 361.3838401303735Q1441.6516681470657 361.3838401303735 1443.616940372825 362.4019932111886Q1445.558534619961 363.39646831338 1447.0976032304952 365.14863873152683Q1448.6366718410295 366.87713117105 1449.7968927935863 369.12653914029255Q1450.9807917247663 371.37594710953505 1451.8095209765925 373.88581284363727L1451.8095209765925 373.88581284363727L1462.961848908311 409.0002551424442L1473.6169392889333 373.88581284363727Q1474.3746346048888 371.5416929599003 1475.534855557445 369.22125105478693Q1476.6950765100019 366.87713117105 1478.2815010777836 365.1012827742796Q1479.8679256455653 363.3017563988856 1481.8568758499478 362.1888914035761Q1483.8458260543307 361.0523484296431 1486.2609798739386 361.0523484296431L1486.2609798739386 361.0523484296431Q1488.6761336935465 361.0523484296431 1490.8781857055415 361.9757895959637Q1493.1039156961606 362.8992307622843 1494.7140182425655 364.50933330868946Q1496.3477987675942 366.14311383371825 1497.294917912539 368.39252180296074Q1498.2657150361065 370.6419297722033 1498.2657150361065 373.2228294421763L1498.2657150361065 373.2228294421763Q1498.2657150361065 375.7090171976549 1497.626409613269 378.17152697450985Q1497.0107821690553 380.6103587727412 1496.0873410027348 383.02551259234895L1496.0873410027348 383.02551259234895L1476.1031270444118 435.96947279473085Q1474.3746346048888 440.4682887332159 1472.3146504646352 445.3459523296786Q1470.2783443030048 450.22361592614135 1467.863190483397 454.86449973636803Q1465.4480366637895 459.5290615252183 1462.701391143451 463.69638576297285Q1459.954745623113 467.86371000072745 1456.8766084020444 471.0128811576669Q1453.7984711809754 474.1857302932301 1450.3414863019289 476.05629060449496Q1446.8845014228827 477.92685091575976 1443.143380800353 477.92685091575976Z " fill="#209cee" transform="matrix(0.5840085456875475,0,0,0.5840085456875475,0,64.68726966317189)"/></g></svg>